<svg width="189" height="353" viewBox="0 0 189 353" fill="none" xmlns="http://www.w3.org/2000/svg">
<path d="M0.797296 353C20.975 257.456 20.0755 166.577 15.7619 107.144C11.0804 42.7594 1.51282 0.42964 1.4106 0L0.633748 0.265967C0.735965 0.695607 10.2831 42.964 14.9442 107.267C19.2578 166.598 20.1573 257.354 0 352.755L0.797296 353Z" fill="#131618"/>
<path d="M173.974 132.943L173.913 131.94L17.377 146.528L17.4383 147.53L173.974 132.943Z" fill="#131618"/>
<path d="M188.673 237.898L189 236.977L17.5815 146.568L17.2544 147.489L188.673 237.898Z" fill="#131618"/>
<path d="M116.282 37.7469L115.731 37.0104L17.1316 146.65L17.6836 147.387L116.282 37.7469Z" fill="#131618"/>
<path d="M106.306 279.041L17.7246 146.712L17.0908 147.346L105.693 279.675L106.306 279.041Z" fill="#131618"/>
<path d="M183.664 234.706L183.051 233.99C155.738 202.81 168.74 133.72 168.863 133.025L168.924 132.718L168.679 132.595C125.605 110.622 110.967 44.0483 110.824 43.3731L110.742 43.0049L110.456 43.1072C82.4486 52.0682 54.5432 41.184 36.0419 30.4635C15.9868 18.8428 2.39188 4.93063 2.26922 4.78741L1.88079 5.36027C2.0239 5.50348 15.6597 19.477 35.7761 31.1386C54.2979 41.8796 82.2441 52.7843 110.313 43.9255C111.54 49.2653 126.688 111.768 168.229 133.147C167.309 138.221 156.188 203.158 182.049 233.847C175.221 233.622 127.179 233.622 103.26 275.153C101.563 275.501 83.7365 279.204 62.9864 289.27C42.9313 298.988 15.9868 316.747 1.47192 346.269L2.00345 346.658C16.4366 317.319 43.2584 299.643 63.2112 289.966C84.8609 279.491 103.321 275.91 103.505 275.87L103.628 275.849L103.71 275.726C129.141 231.371 182.315 234.604 182.867 234.645L183.664 234.706Z" fill="#131618"/>
<path d="M167.657 226.256L167.044 225.561C142.287 197 154.41 134.989 154.553 134.375L154.614 134.068L154.369 133.945C115.26 113.732 102.258 53.6845 102.136 53.0707L101.543 53.2549C101.665 53.8686 114.688 114.039 153.899 134.498C152.999 139.285 142.696 197.368 166.062 225.438C159.684 225.315 116.651 225.888 95.4097 263.451C92.0774 264.106 31.9327 276.77 5.74463 323.191L6.25572 323.621C32.914 276.361 95.0418 264.269 95.6551 264.167L95.8186 264.126L95.8799 263.942C118.511 223.781 166.349 226.175 166.839 226.215L167.657 226.256Z" fill="#131618"/>
<path d="M140.181 135.787L140.304 135.418L140.018 135.275C104.937 116.842 93.5495 63.2593 93.4268 62.7274L93.345 62.3796L93.0588 62.4614C53.194 74.0003 14.4332 39.1791 7.07355 32.0798L6.70557 32.6731C14.0857 39.7928 52.8874 74.655 92.9362 63.2593C93.9992 68.0058 105.938 118.171 139.793 135.971L139.915 135.643L140.181 135.787Z" fill="#131618"/>
<path d="M150.812 217.766L150.832 217.009C150.403 216.988 107.635 215.352 87.5595 251.748C84.5543 252.342 33.3638 262.919 9.01562 302.323L9.50627 302.773C34.3247 262.632 87.2528 252.567 87.7844 252.464L87.9275 252.444L88.0092 252.301C107.839 216.129 150.382 217.745 150.812 217.766Z" fill="#131618"/>
<path d="M135.009 208.682C115.322 185.441 125.789 137.526 125.891 137.055L125.952 136.748L125.707 136.625C94.6124 119.931 84.8404 72.8546 84.7586 72.384L84.6973 72.0362L84.4111 72.1181C50.1887 81.3655 18.0924 53.93 9.07685 45.2963L9.01552 45.2554L8.74976 45.9305C17.7653 54.5438 49.9025 81.9998 84.268 72.9364C85.2288 77.3147 95.5119 121.036 125.278 137.178C124.399 141.392 115.547 186.689 134.641 209.234L135.009 208.682Z" fill="#131618"/>
<path d="M79.934 240.721L79.8522 239.984C79.4025 240.066 34.1201 248.434 11.5505 282.866L12.0207 283.337C34.4472 249.13 79.4842 240.782 79.934 240.721Z" fill="#131618"/>
<path d="M119.554 200.887L119.022 200.232C102.688 180.612 110.599 142.722 111.54 138.467L111.662 138.119L111.397 137.914C84.2682 123.02 76.1317 82.4703 76.0499 82.0612L75.457 82.2248C75.5388 82.634 83.6957 123.307 110.886 138.467C109.761 143.622 102.402 180.346 118.061 200.13C113.196 200.314 85.0859 202.442 71.859 228.282C69.2831 228.773 32.8732 236.015 13.5337 264.31L14.0039 264.801C33.7932 235.831 71.6954 229.08 72.0838 229.018L72.2269 228.998L72.3087 228.855C86.5374 200.867 118.47 200.887 118.777 200.908L119.554 200.887Z" fill="#131618"/>
<path d="M103.505 192.417L102.994 191.783C88.5816 174.045 96.8612 141.126 97.2292 139.735L97.311 139.428L97.0861 139.265C73.9645 126.171 67.4431 92.086 67.3817 91.7382L67.3204 91.3904L67.0342 91.4518C41.5412 96.7916 18.6649 77.151 12.2661 71.0132L11.8777 71.6066C18.2969 77.7647 41.2141 97.4259 66.8502 92.2497C67.6066 95.8914 74.6392 127.173 96.5955 139.817C95.6551 143.663 88.6838 174.331 102.095 191.722C97.8016 192.028 74.6187 194.647 64.0086 216.579C61.6167 217.009 31.6056 222.84 15.1078 246.47L15.578 246.961C32.546 222.676 63.9268 217.357 64.2539 217.295L64.397 217.275L64.4788 217.111C75.9271 193.235 102.545 192.438 102.81 192.438L103.505 192.417Z" fill="#131618"/>
<path d="M82.8778 141.106L83.0005 140.758L82.7347 140.594C63.5996 129.24 58.7136 101.681 58.6727 101.415L58.6114 101.068L58.3252 101.109C36.9413 104.627 18.6648 88.5876 13.554 83.5956L13.1655 84.1889C18.2968 89.2014 36.6142 105.262 58.1207 101.906C58.7545 105.139 64.2129 130.447 82.4689 141.27L82.5916 140.942L82.8778 141.106Z" fill="#131618"/>
<path d="M86.8031 183.988L86.7622 183.231C86.5373 183.251 65.0103 184.827 56.1379 204.836C53.9504 205.204 29.8475 209.644 16.2322 229.162L16.7024 229.653C30.7471 209.521 56.1174 205.593 56.3832 205.572L56.5467 205.552L56.6285 205.388C65.2761 185.584 86.5782 184.008 86.8031 183.988Z" fill="#131618"/>
<path d="M71.409 175.477L71.0001 174.925C61.5143 162.322 68.506 142.64 68.5673 142.456L68.69 142.129L68.4447 141.965C53.3165 132.37 50.0251 111.297 49.9842 111.093L49.3913 111.236C49.4322 111.44 52.7236 132.636 67.9131 142.477C67.0545 145.095 61.637 162.854 70.1824 174.904C67.2385 175.498 53.7458 178.935 48.3487 193.092C44.5871 193.686 27.3124 197.225 17.0293 212.426L17.4995 212.897C27.7212 197.757 45.0369 194.361 48.4509 193.829L48.6554 193.931L48.7985 193.604C54.6453 177.932 70.6526 175.559 70.7957 175.538L71.409 175.477Z" fill="#131618"/>
<path d="M55.32 166.966L54.9929 166.496C48.083 156.573 54.1547 143.95 54.216 143.827L54.3796 143.5L54.1138 143.315C42.9721 135.48 41.3366 120.913 41.3162 120.77L41.2753 120.442H41.0095C27.2306 120.32 18.1128 111.052 15.6596 108.228L15.2507 108.781C17.7448 111.645 26.9035 120.954 40.7642 121.199C41.0709 123.409 43.3196 136.4 53.5618 143.786C52.6419 145.852 48.1239 157.207 54.2569 166.557C52.1308 167.314 43.3401 171.037 40.4576 181.431C38.6381 181.656 25.2067 183.681 17.4995 196.182L17.9902 196.632C26.0653 183.538 40.5802 182.167 40.7233 182.147L40.8869 182.106L40.9482 181.86C44.0352 170.28 54.7271 167.13 54.8293 167.089L55.32 166.966Z" fill="#131618"/>
<path d="M32.8118 170.403V169.646C32.7096 169.646 22.8967 169.605 17.6223 180.756L18.1538 181.124C23.2443 170.383 32.7096 170.403 32.8118 170.403Z" fill="#131618"/>
<path d="M38.9857 158.046C34.6517 150.865 39.6194 145.464 39.8239 145.239L40.1305 144.932L39.8034 144.666C32.6482 138.63 32.6073 130.569 32.6073 130.508V130.181L32.3415 130.119C20.9954 127.848 16.4978 120.258 16.457 120.176L15.9663 120.606C16.1503 120.933 20.5865 128.421 32.0144 130.815C32.0962 132.39 32.8526 139.49 39.1697 145.014C38.0862 146.384 34.4472 151.786 38.5155 158.517L38.9857 158.046Z" fill="#131618"/>
</svg>
